<?xml version="1.0" encoding="UTF-8"?>
<svg id="Layer_1" data-name="Layer 1" xmlns="http://www.w3.org/2000/svg" viewBox="0 0 150 50">
  <g>
    <path d="M7.99,33.72c8.65-8.65,10-10,10-10l2.29,2.29-10.01,9.99-2.28-2.28Z" style="fill: #fabf2c;"/>
    <path d="M2.5,23.4c8.9,8.92,10.17,10.19,10.17,10.19l-2.41,2.41L.08,25.77c-.1-.1-.1-.27,0-.37l2.06-2c.1-.1,.27-.1,.37,0Z" style="fill: #f58862;"/>
    <path d="M16.88,29.37v-13.21c0-.3,.25-.55,.55-.55h2.33c.3,0,.55,.25,.55,.55v9.98l-3.43,3.24Z" style="fill: #9b59a4;"/>
    <circle cx="12.78" cy="23.03" r="1.57" style="fill: #f2815a;"/>
    <path d="M.1,25.37c8.43-8.44,9.58-9.78,9.58-9.78l2.48,2.3L2.18,27.9,.1,25.84c-.13-.13-.13-.34,0-.47Z" style="fill: #f05f7d;"/>
    <path d="M9.68,15.55h9.96c.62,0,.67,.43,.67,.62v2.72H6.56s3.12-3.33,3.12-3.33Z" style="fill: #cc4398;"/>
  </g>
  <g>
    <path d="M23.91,15.84h8.43c.74,0,1.41,.17,2.01,.52,.6,.35,1.08,.82,1.43,1.4,.36,.59,.53,1.25,.53,1.97v1.04c0,1.03-.3,1.82-.9,2.35,.53,.34,.92,.75,1.16,1.22,.24,.47,.36,1.06,.36,1.77v1.75c0,.7-.18,1.34-.53,1.92-.36,.58-.83,1.04-1.43,1.39s-1.26,.52-1.99,.52h-9.07V15.84Zm9.09,13.5c.44,0,.81-.15,1.11-.44,.31-.29,.46-.65,.46-1.07v-1.75c0-.42-.15-.77-.46-1.07-.31-.3-.68-.45-1.13-.45h-5.35v-2.34h4.7c.44,0,.82-.14,1.14-.43,.32-.29,.48-.63,.48-1.04v-1.01c0-.43-.16-.8-.48-1.1-.32-.3-.7-.46-1.14-.46h-6.05v11.16h6.72Z" style="fill: #fff;"/>
    <path d="M39.42,22.5c0-.65,.23-1.2,.7-1.66,.46-.46,1.02-.69,1.68-.69h4.13c.77,0,1.48,.19,2.11,.56,.64,.38,1.15,.88,1.52,1.5,.38,.62,.57,1.32,.57,2.08v3.23c0,.77-.19,1.46-.57,2.1-.38,.63-.89,1.13-1.52,1.51-.64,.38-1.34,.56-2.11,.56h-2.78v-2.35h2.78c.51,0,.94-.18,1.3-.54,.36-.36,.53-.79,.53-1.3v-3.19c0-.5-.18-.93-.53-1.29-.36-.35-.79-.53-1.3-.53h-4.13v13.5h-2.37v-13.5Z" style="fill: #fff;"/>
    <path d="M52.71,24.31c0-.77,.19-1.46,.57-2.1,.38-.63,.89-1.13,1.52-1.51,.64-.38,1.34-.56,2.12-.56h2.54c.77,0,1.48,.19,2.11,.56,.64,.38,1.15,.88,1.52,1.51,.38,.63,.57,1.33,.57,2.1v3.21c0,.77-.19,1.46-.57,2.1-.38,.63-.89,1.13-1.52,1.51-.64,.38-1.34,.56-2.11,.56h-2.54c-.77,0-1.48-.19-2.12-.56-.64-.38-1.15-.88-1.52-1.51s-.57-1.33-.57-2.1v-3.21Zm2.37,3.19c0,.51,.18,.94,.54,1.3,.36,.36,.79,.54,1.29,.54h2.54c.51,0,.94-.18,1.3-.54,.36-.36,.53-.79,.53-1.3v-3.17c0-.51-.18-.94-.53-1.3-.36-.36-.79-.54-1.3-.54h-2.54c-.5,0-.93,.18-1.29,.54-.36,.36-.54,.79-.54,1.3v3.17Z" style="fill: #fff;"/>
    <path d="M66.26,22.49c0-.65,.23-1.2,.7-1.66s1.03-.69,1.69-.69h4.11c.77,0,1.48,.19,2.12,.56,.64,.38,1.15,.88,1.52,1.51,.38,.63,.57,1.33,.57,2.1v7.38h-2.37v-7.35c0-.52-.18-.96-.53-1.33-.36-.36-.79-.55-1.3-.55h-4.13v9.22h-2.37v-9.21Z" style="fill: #fff;"/>
    <path d="M79.4,17c0-.4,.14-.74,.43-1.03,.29-.28,.63-.42,1.04-.42s.75,.14,1.04,.42c.28,.28,.43,.62,.43,1.03s-.14,.74-.43,1.03c-.29,.28-.63,.42-1.04,.42s-.75-.14-1.04-.42c-.29-.28-.43-.62-.43-1.03Zm.27,3.14h2.39v11.55h-2.39v-11.55Z" style="fill: #fff;"/>
    <path d="M91.51,19.68c0-.71,.18-1.35,.54-1.93,.36-.58,.84-1.04,1.44-1.39,.6-.35,1.27-.52,2-.52h8.28v2.34h-8.28c-.43,0-.81,.15-1.12,.46-.31,.3-.47,.67-.47,1.1v1.09c0,.39,.16,.73,.47,1.01,.32,.28,.69,.42,1.12,.42h5.1c.74,0,1.4,.17,2,.52,.6,.35,1.08,.81,1.43,1.39s.53,1.23,.53,1.93v1.73c0,.71-.18,1.35-.53,1.93-.36,.58-.83,1.05-1.43,1.39-.6,.35-1.27,.52-2,.52h-9.06v-2.35h9.06c.44,0,.82-.15,1.13-.44,.31-.29,.47-.65,.47-1.07v-1.71c0-.42-.16-.77-.47-1.07s-.69-.45-1.13-.45h-5.1c-.73,0-1.39-.17-2-.51-.6-.34-1.08-.79-1.44-1.37-.36-.57-.54-1.2-.54-1.9v-1.17Z" style="fill: #fff;"/>
    <path d="M106.91,20.15h1.52v-4.3h2.37v4.3h3.59v2.35h-3.59v5.92c0,.25,.1,.47,.3,.65,.2,.18,.44,.27,.71,.27h2.58v2.35h-2.61c-.62,0-1.18-.15-1.68-.44-.51-.29-.91-.69-1.22-1.18s-.46-1.04-.46-1.64v-5.93h-1.52v-2.35Z" style="fill: #fff;"/>
    <path d="M116.42,24.31c0-.77,.19-1.46,.57-2.1,.38-.63,.89-1.13,1.52-1.51s1.34-.56,2.12-.56h2.54c.77,0,1.48,.19,2.12,.56,.64,.38,1.15,.88,1.52,1.51,.38,.63,.57,1.33,.57,2.1v3.21c0,.77-.19,1.46-.57,2.1s-.89,1.13-1.52,1.51c-.64,.38-1.34,.56-2.12,.56h-2.54c-.77,0-1.48-.19-2.12-.56-.64-.38-1.15-.88-1.52-1.51s-.57-1.33-.57-2.1v-3.21Zm2.37,3.19c0,.51,.18,.94,.54,1.3,.36,.36,.79,.54,1.29,.54h2.54c.51,0,.94-.18,1.3-.54,.36-.36,.54-.79,.54-1.3v-3.17c0-.51-.18-.94-.54-1.3-.36-.36-.79-.54-1.3-.54h-2.54c-.5,0-.93,.18-1.29,.54-.36,.36-.54,.79-.54,1.3v3.17Z" style="fill: #fff;"/>
    <path d="M129.96,23.38c0-.59,.15-1.14,.46-1.63,.3-.49,.71-.88,1.21-1.17,.51-.29,1.07-.43,1.68-.43h2.6v2.34h-2.6c-.27,0-.5,.09-.69,.27s-.29,.4-.29,.66v8.27h-2.37v-8.32Z" style="fill: #fff;"/>
    <path d="M138.05,22.53c0-.66,.24-1.22,.73-1.69,.49-.46,1.07-.7,1.76-.7h4.86c.62,0,1.19,.15,1.69,.45,.51,.3,.91,.71,1.22,1.21,.3,.51,.46,1.07,.46,1.69v.32c0,.61-.15,1.17-.46,1.67s-.71,.9-1.22,1.2c-.51,.3-1.07,.45-1.69,.45h-3.62v-2.34h3.65c.27,0,.5-.1,.69-.29,.19-.19,.29-.43,.29-.7v-.31c0-.28-.1-.52-.29-.71s-.42-.29-.69-.29h-5v5.93c0,.25,.09,.47,.26,.65,.17,.18,.38,.27,.63,.27h6.63v2.35h-6.63c-.6,0-1.15-.15-1.64-.44-.49-.29-.89-.69-1.18-1.18-.29-.49-.44-1.04-.44-1.63v-5.91Z" style="fill: #fff;"/>
  </g>
</svg>